<?xml version="1.0" encoding="utf-8"?>
<!-- Generator: Fusion 360, Shaper Origin Export Add-In, Version 1.7.0  -->
<svg xmlns="http://www.w3.org/2000/svg" xmlns:xlink="http://www.w3.org/1999/xlink" xmlns:shaper="http://www.shapertools.com/namespaces/shaper" shaper:fusionaddin="version:1.7.0" width="9.1000212cm" height="12.1cm" version="1.1" x="0cm" y="0cm" viewBox="0 0 9.1000212 12.1" enable-background="new 0 0 9.1000212 12.1" xml:space="preserve"><path d="M-4.200022,5.5846639 L-4.200022,-5.7835251 -4.200022,-5.7835251 -4.1988934,-5.8122337 -4.1955148,-5.8407653 -4.1899068,-5.868944 -4.1821041,-5.8965961 -4.1721548,-5.923551 -4.1601202,-5.9496427 -4.1460746,-5.9747102 -4.1301044,-5.9985989 -4.1123083,-6.0211617 -4.0927958,-6.0422593 -4.0716873,-6.0617618 -4.049113,-6.0795488 -4.025212,-6.0955108 -4.0001317,-6.1095493 -3.9740267,-6.1215777 -3.9470579,-6.1315219 -3.9193917,-6.1393206 -3.8911985,-6.1449257 -3.8626523,-6.1483026 -3.833929,-6.1494306 4.533885,-6.1494306 4.533885,-6.1494306 4.5626084,-6.1483026 4.5911546,-6.1449257 4.6193477,-6.1393206 4.647014,-6.1315219 4.6739828,-6.1215777 4.7000878,-6.1095493 4.7251681,-6.0955108 4.7490691,-6.0795488 4.7716434,-6.0617618 4.7927519,-6.0422593 4.8122643,-6.0211617 4.8300605,-5.9985989 4.8460306,-5.9747102 4.8600763,-5.9496427 4.8721109,-5.923551 4.8820602,-5.8965961 4.8898629,-5.868944 4.8954708,-5.8407653 4.8988495,-5.8122337 4.899978,-5.7835251 4.8999992,-5.7835251 4.8999992,5.5846639 4.899978,5.5846639 4.899978,5.5846639 4.8988495,5.6133725 4.8954708,5.6419041 4.8898629,5.6700829 4.8820602,5.6977349 4.8721109,5.7246899 4.8600763,5.7507815 4.8460306,5.775849 4.8300605,5.7997378 4.8122643,5.8223005 4.7927519,5.8433982 4.7716434,5.8629006 4.7490691,5.8806877 4.7251681,5.8966496 4.7000878,5.9106881 4.6739828,5.9227165 4.647014,5.9326607 4.6193477,5.9404594 4.5911546,5.9460645 4.5626084,5.9494415 4.533885,5.9505694 -3.833929,5.9505694 -3.833929,5.9505694 -3.8626523,5.9494415 -3.8911985,5.9460645 -3.9193917,5.9404594 -3.9470579,5.9326607 -3.9740267,5.9227165 -4.0001317,5.9106881 -4.025212,5.8966496 -4.049113,5.8806877 -4.0716873,5.8629006 -4.0927958,5.8433982 -4.1123083,5.8223005 -4.1301044,5.7997378 -4.1460746,5.775849 -4.1601202,5.7507815 -4.1721548,5.7246899 -4.1821041,5.6977349 -4.1899068,5.6700829 -4.1955148,5.6419041 -4.1988934,5.6133725 -4.200022,5.5846639z" transform="matrix(1,0,0,-1,4.200022,5.9505694)" fill="rgb(0,0,0)" shaper:cutDepth="0.1cm" stroke-linecap="round" stroke-linejoin="round" /><path d="M-3.0477997,0.9020314 L-2.6469497,1.5015192 -2.2460997,0.9020314 -3.0477997,0.9020314z" transform="matrix(1,0,0,-1,4.200022,5.9505694)" fill="rgb(255,255,255)" stroke="rgb(0,0,0)" stroke-width="0.0010cm" stroke-linecap="round" stroke-linejoin="round" shaper:cutDepth="0.1cm" /><path d="M-1.385842,2.4172634 a0.15,0.15 0 1,1 0.3,0 a0.15,0.15 0 1,1 -0.3,0z" transform="matrix(1,0,0,-1,4.200022,5.9505694)" fill="rgb(255,255,255)" stroke="rgb(0,0,0)" stroke-width="0.0010cm" stroke-linecap="round" stroke-linejoin="round" shaper:cutDepth="0.1cm" /><path d="M0.1613481,-3.5923315 a0.15,0.15 0 1,1 0.3,0 a0.15,0.15 0 1,1 -0.3,0z" transform="matrix(1,0,0,-1,4.200022,5.9505694)" fill="rgb(255,255,255)" stroke="rgb(0,0,0)" stroke-width="0.0010cm" stroke-linecap="round" stroke-linejoin="round" shaper:cutDepth="0.1cm" /><path d="M2.4448426,2.6696551 A0.05,0.05 19.7134394 0,1 2.372773,2.6960906 L2.1955617,2.5937776 A0.05,0.05 120 0,1 2.1723854,2.5370955 A0.45,0.45 15.5224878 0,0 2.1723854,2.2962406 A0.05,0.05 164.4775122 0,1 2.1955617,2.2395585 L2.372773,2.1372455 A0.05,0.05 240 0,1 2.4448426,2.163681 A0.75,0.75 340.2865606 0,1 2.4448426,2.6696551z" transform="matrix(1,0,0,-1,4.200022,5.9505694)" fill="rgb(255,255,255)" stroke="rgb(0,0,0)" stroke-width="0.0010cm" stroke-linecap="round" stroke-linejoin="round" shaper:cutDepth="0.1cm" /><path d="M-2.8364387,-1.4752453 L-3.0469473,-1.4752453 -3.0469473,-1.1752467 -2.8364387,-1.1752467 A0.04,0.04 270 0,1 -2.7964387,-1.1352467 L-2.7964387,-0.9244636 -2.4974607,-0.9244636 -2.4974607,-1.1352467 A0.04,0.04 180 0,1 -2.4574607,-1.1752467 L-2.2469521,-1.1752467 -2.2469521,-1.4752453 -2.4574607,-1.4752453 A0.04,0.04 90 0,1 -2.4974607,-1.5152453 L-2.4974607,-1.724198 -2.7964387,-1.724198 -2.7964387,-1.5152453 A0.04,0.04 0 0,1 -2.8364387,-1.4752453z" transform="matrix(1,0,0,-1,4.200022,5.9505694)" fill="rgb(255,255,255)" stroke="rgb(0,0,0)" stroke-width="0.0010cm" stroke-linecap="round" stroke-linejoin="round" shaper:cutDepth="0.1cm" /><path d="M1.3570362,2.1096547 A0.05,0.05 120 0,0 1.4177125,2.1013849 A0.45,0.45 224.4775122 0,1 1.626299,1.9809574 A0.05,0.05 75.5224878 0,0 1.663799,1.9325451 L1.663799,1.7279192 A0.05,0.05 0 0,0 1.6048704,1.6787228 A0.75,0.75 259.7134394 0,0 1.166684,1.9317099 A0.05,0.05 220.2865606 0,0 1.179825,2.0073417 L1.3570362,2.1096547z" transform="matrix(1,0,0,-1,4.200022,5.9505694)" fill="rgb(255,255,255)" stroke="rgb(0,0,0)" stroke-width="0.0010cm" stroke-linecap="round" stroke-linejoin="round" shaper:cutDepth="0.1cm" /><path d="M2.7066547,1.7072632 A0.05,0.05 323.7598689 0,1 2.6913274,1.780123 L2.5168701,1.8808459 A0.05,0.05 60 0,1 2.4522348,1.8680248 A0.9,0.9 322.4391568 0,0 1.85722,1.5244929 A0.05,0.05 97.5608432 0,1 1.813799,1.4749276 L1.813799,1.2734817 A0.05,0.05 180 0,1 1.8692338,1.2237779 A1.2,1.2 276.2401311 0,1 2.7066547,1.7072632z" transform="matrix(1,0,0,-1,4.200022,5.9505694)" fill="rgb(255,255,255)" stroke="rgb(0,0,0)" stroke-width="0.0010cm" stroke-linecap="round" stroke-linejoin="round" shaper:cutDepth="0.1cm" /><path d="M2.310914,1.9317099 A0.05,0.05 319.7134394 0,1 2.297773,2.0073417 L2.1205617,2.1096547 A0.05,0.05 60 0,1 2.0598854,2.1013849 A0.45,0.45 315.5224878 0,0 1.851299,1.9809574 A0.05,0.05 104.4775122 0,1 1.813799,1.9325451 L1.813799,1.7279192 A0.05,0.05 180 0,1 1.8727275,1.6787228 A0.75,0.75 280.2865606 0,1 2.310914,1.9317099z" transform="matrix(1,0,0,-1,4.200022,5.9505694)" fill="rgb(255,255,255)" stroke="rgb(0,0,0)" stroke-width="0.0010cm" stroke-linecap="round" stroke-linejoin="round" shaper:cutDepth="0.1cm" /><path d="M1.438799,2.416668 a0.3,0.3 0 1,1 0.6,0 a0.3,0.3 0 1,1 -0.6,0z" transform="matrix(1,0,0,-1,4.200022,5.9505694)" fill="rgb(255,255,255)" stroke="rgb(0,0,0)" stroke-width="0.0010cm" stroke-linecap="round" stroke-linejoin="round" shaper:cutDepth="0.1cm" /><path d="M2.8370895,2.9001532 A0.05,0.05 23.7598689 0,1 2.7663274,2.9233093 L2.5918701,2.8225863 A0.05,0.05 120 0,1 2.5706558,2.7602 A0.9,0.9 22.4391568 0,0 2.5706558,2.0731361 A0.05,0.05 157.5608432 0,1 2.5918701,2.0107497 L2.7663274,1.9100268 A0.05,0.05 240 0,1 2.8370895,1.9331828 A1.2,1.2 336.2401311 0,1 2.8370895,2.9001532z" transform="matrix(1,0,0,-1,4.200022,5.9505694)" fill="rgb(255,255,255)" stroke="rgb(0,0,0)" stroke-width="0.0010cm" stroke-linecap="round" stroke-linejoin="round" shaper:cutDepth="0.1cm" /><path d="M2.5168701,2.9524901 A0.05,0.05 300 0,0 2.4522348,2.9653112 A0.9,0.9 37.5608432 0,1 1.85722,3.3088432 A0.05,0.05 262.4391568 0,0 1.813799,3.3584084 L1.813799,3.5598544 A0.05,0.05 180 0,0 1.8692338,3.6095581 A1.2,1.2 83.7598689 0,0 2.7066547,3.1260729 A0.05,0.05 36.2401311 0,0 2.6913274,3.0532131 L2.5168701,2.9524901z" transform="matrix(1,0,0,-1,4.200022,5.9505694)" fill="rgb(255,255,255)" stroke="rgb(0,0,0)" stroke-width="0.0010cm" stroke-linecap="round" stroke-linejoin="round" shaper:cutDepth="0.1cm" /><path d="M-1.8386519,-3.5923315 a0.15,0.15 0 1,1 0.3,0 a0.15,0.15 0 1,1 -0.3,0z" transform="matrix(1,0,0,-1,4.200022,5.9505694)" fill="rgb(255,255,255)" stroke="rgb(0,0,0)" stroke-width="0.0010cm" stroke-linecap="round" stroke-linejoin="round" shaper:cutDepth="0.1cm" /><path d="M-0.8386519,-3.5923315 a0.15,0.15 0 1,1 0.3,0 a0.15,0.15 0 1,1 -0.3,0z" transform="matrix(1,0,0,-1,4.200022,5.9505694)" fill="rgb(255,255,255)" stroke="rgb(0,0,0)" stroke-width="0.0010cm" stroke-linecap="round" stroke-linejoin="round" shaper:cutDepth="0.1cm" /><path d="M-2.8977997,4.1018417 L-2.3960997,4.1018417 -2.3960997,3.6001417 -2.8977997,3.6001417 -2.8977997,4.1018417z" transform="matrix(1,0,0,-1,4.200022,5.9505694)" fill="rgb(255,255,255)" stroke="rgb(0,0,0)" stroke-width="0.0010cm" stroke-linecap="round" stroke-linejoin="round" shaper:cutDepth="0.1cm" /><path d="M2.1205617,2.7236814 A0.05,0.05 300 0,0 2.0598854,2.7319512 A0.45,0.45 44.4775122 0,1 1.851299,2.8523787 A0.05,0.05 255.5224878 0,0 1.813799,2.9007909 L1.813799,3.1054169 A0.05,0.05 180 0,0 1.8727275,3.1546132 A0.75,0.75 79.7134394 0,0 2.310914,2.9016262 A0.05,0.05 40.2865606 0,0 2.297773,2.8259944 L2.1205617,2.7236814z" transform="matrix(1,0,0,-1,4.200022,5.9505694)" fill="rgb(255,255,255)" stroke="rgb(0,0,0)" stroke-width="0.0010cm" stroke-linecap="round" stroke-linejoin="round" shaper:cutDepth="0.1cm" /><path d="M0.7709432,3.1260729 A0.05,0.05 143.7598689 0,1 0.7862706,3.0532131 L0.9607279,2.9524901 A0.05,0.05 240 0,1 1.0253632,2.9653112 A0.9,0.9 142.4391568 0,0 1.6203779,3.3088432 A0.05,0.05 277.5608432 0,1 1.663799,3.3584084 L1.663799,3.5598544 A0.05,0.05 0 0,1 1.6083642,3.6095581 A1.2,1.2 96.2401311 0,1 0.7709432,3.1260729z" transform="matrix(1,0,0,-1,4.200022,5.9505694)" fill="rgb(255,255,255)" stroke="rgb(0,0,0)" stroke-width="0.0010cm" stroke-linecap="round" stroke-linejoin="round" shaper:cutDepth="0.1cm" /><path d="M1.0327554,2.163681 A0.05,0.05 199.7134394 0,1 1.104825,2.1372455 L1.2820362,2.2395585 A0.05,0.05 300 0,1 1.3052125,2.2962406 A0.45,0.45 195.5224878 0,0 1.3052125,2.5370955 A0.05,0.05 344.4775122 0,1 1.2820362,2.5937776 L1.104825,2.6960906 A0.05,0.05 60 0,1 1.0327554,2.6696551 A0.75,0.75 160.2865606 0,1 1.0327554,2.163681z" transform="matrix(1,0,0,-1,4.200022,5.9505694)" fill="rgb(255,255,255)" stroke="rgb(0,0,0)" stroke-width="0.0010cm" stroke-linecap="round" stroke-linejoin="round" shaper:cutDepth="0.1cm" /><path d="M-2.6469497,0.0098192 L-3.0477997,0.6093069 -2.2460997,0.6093069 -2.6469497,0.0098192z" transform="matrix(1,0,0,-1,4.200022,5.9505694)" fill="rgb(255,255,255)" stroke="rgb(0,0,0)" stroke-width="0.0010cm" stroke-linecap="round" stroke-linejoin="round" shaper:cutDepth="0.1cm" /><path d="M-3.0477236,2.8310606 L-3.0477236,2.8310606 -3.047328,2.8614809 -3.0446217,2.8917833 -3.0396205,2.9217931 -3.0323531,2.951337 -3.0228615,2.9802445 -3.0112006,3.0083487 -2.9974376,3.0354874 -2.9816519,3.0615039 -2.9639347,3.0862482 -2.9443882,3.1095774 -2.9231253,3.1313569 -2.9002686,3.1514609 -2.8759501,3.1697734 -2.8503101,3.1861887 -2.8234967,3.200612 -2.7956646,3.2129602 -2.7669744,3.223162 -2.7375917,3.2311584 -2.7076862,3.2369033 -2.6774304,3.2403635 -2.6469989,3.2415192 -2.6165675,3.2403635 -2.5863116,3.2369033 -2.5564061,3.2311584 -2.5270234,3.223162 -2.4983333,3.2129602 -2.4705011,3.200612 -2.4436877,3.1861887 -2.4180478,3.1697734 -2.3937292,3.1514609 -2.3708726,3.1313569 -2.3496096,3.1095774 -2.3300631,3.0862482 -2.3123459,3.0615039 -2.2965602,3.0354874 -2.2827972,3.0083487 -2.2711363,2.9802445 -2.2616447,2.951337 -2.2543774,2.9217931 -2.2493761,2.8917833 -2.2466699,2.8614809 -2.2462742,2.8310606 -2.2461482,2.8310606 -2.2461482,2.1302777 -2.2462742,2.1302777 -2.2462742,2.1302777 -2.2466699,2.0998574 -2.2493761,2.0695549 -2.2543774,2.0395452 -2.2616447,2.0100013 -2.2711363,1.9810938 -2.2827972,1.9529896 -2.2965603,1.9258509 -2.3123459,1.8998344 -2.3300631,1.8750901 -2.3496096,1.8517609 -2.3708726,1.8299814 -2.3937293,1.8098775 -2.4180478,1.791565 -2.4436877,1.7751497 -2.4705011,1.7607263 -2.4983333,1.7483781 -2.5270235,1.7381764 -2.5564061,1.73018 -2.5863116,1.7244351 -2.6165675,1.7209748 -2.6469989,1.7198192 -2.6774304,1.7209748 -2.7076862,1.7244351 -2.7375917,1.73018 -2.7669744,1.7381764 -2.7956646,1.7483781 -2.8234967,1.7607263 -2.8503101,1.7751497 -2.87595,1.791565 -2.9002685,1.8098775 -2.9231252,1.8299814 -2.9443882,1.8517609 -2.9639347,1.8750901 -2.9816519,1.8998344 -2.9974376,1.9258509 -3.0112006,1.9529896 -3.0228615,1.9810938 -3.0323531,2.0100013 -3.0396204,2.0395452 -3.0446217,2.0695549 -3.047328,2.0998574 -3.0477236,2.1302777 -3.0478482,2.1302777 -3.0478482,2.8310606 -3.0477236,2.8310606z" transform="matrix(1,0,0,-1,4.200022,5.9505694)" fill="rgb(255,255,255)" stroke="rgb(0,0,0)" stroke-width="0.0010cm" stroke-linecap="round" stroke-linejoin="round" shaper:cutDepth="0.1cm" /><path d="M0.9607279,1.8808459 A0.05,0.05 120 0,0 1.0253632,1.8680248 A0.9,0.9 217.5608432 0,1 1.6203779,1.5244929 A0.05,0.05 82.4391568 0,0 1.663799,1.4749276 L1.663799,1.2734817 A0.05,0.05 0 0,0 1.6083642,1.2237779 A1.2,1.2 263.7598689 0,0 0.7709432,1.7072632 A0.05,0.05 216.2401311 0,0 0.7862706,1.780123 L0.9607279,1.8808459z" transform="matrix(1,0,0,-1,4.200022,5.9505694)" fill="rgb(255,255,255)" stroke="rgb(0,0,0)" stroke-width="0.0010cm" stroke-linecap="round" stroke-linejoin="round" shaper:cutDepth="0.1cm" /><path d="M0.6405085,1.9331828 A0.05,0.05 203.7598689 0,1 0.7112706,1.9100268 L0.8857279,2.0107497 A0.05,0.05 300 0,1 0.9069421,2.0731361 A0.9,0.9 202.4391568 0,0 0.9069421,2.7602 A0.05,0.05 337.5608432 0,1 0.8857279,2.8225863 L0.7112706,2.9233093 A0.05,0.05 60 0,1 0.6405085,2.9001532 A1.2,1.2 156.2401311 0,1 0.6405085,1.9331828z" transform="matrix(1,0,0,-1,4.200022,5.9505694)" fill="rgb(255,255,255)" stroke="rgb(0,0,0)" stroke-width="0.0010cm" stroke-linecap="round" stroke-linejoin="round" shaper:cutDepth="0.1cm" /><path d="M-2.8177997,4.5709917 a0.17085,0.17085 0 1,1 0.3417,0 a0.17085,0.17085 0 1,1 -0.3417,0z" transform="matrix(1,0,0,-1,4.200022,5.9505694)" fill="rgb(255,255,255)" stroke="rgb(0,0,0)" stroke-width="0.0010cm" stroke-linecap="round" stroke-linejoin="round" shaper:cutDepth="0.1cm" /><path d="M1.166684,2.9016262 A0.05,0.05 139.7134394 0,1 1.179825,2.8259944 L1.3570362,2.7236814 A0.05,0.05 240 0,1 1.4177125,2.7319512 A0.45,0.45 135.5224878 0,0 1.626299,2.8523787 A0.05,0.05 284.4775122 0,1 1.663799,2.9007909 L1.663799,3.1054169 A0.05,0.05 0 0,1 1.6048704,3.1546132 A0.75,0.75 100.2865606 0,1 1.166684,2.9016262z" transform="matrix(1,0,0,-1,4.200022,5.9505694)" fill="rgb(255,255,255)" stroke="rgb(0,0,0)" stroke-width="0.0010cm" stroke-linecap="round" stroke-linejoin="round" shaper:cutDepth="0.1cm" /></svg>